<svg height="26" viewBox="0 0 26 26" width="26" xmlns="http://www.w3.org/2000/svg"><path d="m24 0h-22c-1.103 0-2 .897-2 2v22c0 1.103.897 2 2 2h10.5c.276 0 .5-.224.5-.5v-7c0-.276-.224-.5-.5-.5h-2c-.276 0-.5-.224-.5-.5v-4c0-.276.224-.5.5-.5h2c.276 0 .5-.224.5-.5v-2c0-3.033 2.467-5.5 5.5-5.5h3c.276 0 .5.224.5.5v4c0 .276-.224.5-.5.5h-2c-.827 0-1.5.673-1.5 1.5v1c0 .276.224.5.5.5h3c.144 0 .28.062.375.169.095.108.139.251.121.393l-.5 4c-.031.25-.245.438-.496.438h-2.5c-.276 0-.5.224-.5.5v7c0 .276.224.5.5.5h5.5c1.103 0 2-.897 2-2v-22c0-1.103-.897-2-2-2" fill="#303c42" fill-rule="evenodd"/></svg>