<svg height="26" viewBox="0 0 26 26" width="26" xmlns="http://www.w3.org/2000/svg"><g fill="#303c42" fill-rule="evenodd"><path d="m24 19.5c0 2.481-2.019 4.5-4.5 4.5h-13c-2.481 0-4.5-2.019-4.5-4.5v-13c0-2.481 2.019-4.5 4.5-4.5h13c2.481 0 4.5 2.019 4.5 4.5zm-4.5-19.5h-13c-3.584 0-6.5 2.916-6.5 6.5v13c0 3.584 2.916 6.5 6.5 6.5h13c3.584 0 6.5-2.916 6.5-6.5v-13c0-3.584-2.916-6.5-6.5-6.5z"/><path d="m12.978 18.022c-2.769 0-5.021-2.253-5.021-5.022s2.252-5.022 5.021-5.022 5.022 2.253 5.022 5.022-2.253 5.022-5.022 5.022m0-12.044c-3.872 0-7.021 3.15-7.021 7.022s3.149 7.022 7.021 7.022 7.022-3.15 7.022-7.022-3.15-7.022-7.022-7.022m7.022-2.978c-.551 0-1 .449-1 1s.449 1 1 1 1-.449 1-1-.449-1-1-1"/></g></svg>