<svg id="Layer_1" data-name="Layer 1" xmlns="http://www.w3.org/2000/svg" width="170" height="100" viewBox="0 0 170 100"><defs><style>.cls-1{fill:#343434;}.cls-2{fill:#b1b1b1;}</style></defs><title>Artboard 1</title><path class="cls-1" d="M60.6,8.1c.2-.2.6-.1.8-.1h10a7.9,7.9,0,0,1,7.2,3.9A15.4,15.4,0,0,1,80.3,17c.3,5.5.1,11.1.1,16.7a16.1,16.1,0,0,1-1.1,6.1,9.2,9.2,0,0,1-3.7,4.6c4.4,1.6,4.8,5.3,4.9,9.1.1,8.4,0,16.8,0,25.2,0,.3.1.7-.3.9l-3.6.6c-1.1.2-1.1.2-1.1-1V55.8a15.1,15.1,0,0,0-.2-3c-.4-2.5-1.5-4.7-5.3-4.4l-3.7.2c-.5,0-.7.2-.7.8s0,2,.1,3-.1,2.5-.1,3.7V81.8c0,.4.2.8-.2,1.1l-3.5.6c-1.2.3-1.2.3-1.2-1V10C60.7,9.4,60.6,8.8,60.6,8.1Zm11,33.7a4.9,4.9,0,0,0,3.1-3.2,8.1,8.1,0,0,0,.6-3.1c.1-4.3.1-8.7.1-13,0-1.3,0-2.6-.1-3.9-.2-2.8-1.6-4.5-4.1-4.7h-5c-.5,0-.6.3-.6.8V42c0,.3.1.4.4.4C67.9,42.2,69.8,42.4,71.6,41.8Z"/><path class="cls-1" d="M29.9,8.1A33.8,33.8,0,0,1,34.4,8c.6,0,.4.4.3.6l-.9,9.1c-.7,7.1-1.5,14.3-2.3,21.5s-1.3,13-2,19.5S28,73,27.2,80.1c-.3,3.5-.7,7-1.1,10.5a.9.9,0,0,1-.4.9,15.1,15.1,0,0,0-3.7.7c-.7.1-.8-.1-.9-.7-.4-4.7-1-9.4-1.5-14.1s-1-10.8-1.6-16.1L15.3,35.9c-.8-7.8-1.5-15.6-2.4-23.4a18.4,18.4,0,0,0-.5-4.1c0-.5.3-.4.6-.4h3.9c.5,0,.7.1.7.6.6,5.4,1.1,10.8,1.6,16.2l2.1,21c.2,2.4.5,4.7.7,7.1l.6,5.8c.3,3.4.6,6.8,1,10.2.3-2.1.5-4.3.8-6.5l1.8-18.2c.6-5.4,1.1-10.8,1.7-16.2S29.2,14.8,29.9,8.1Z"/><path class="cls-1" d="M44.5,53.6V79.7c0,1.1.3,1.1,1.1.9l9-1.8c.8-.2,1,0,1,.8s0,3,0,4.5,0,.7-.4.9H54.1L40.7,87.9c-1.2.3-1.2.3-1.2-.9V8.1c.2-.2.6-.1.8-.1H54.5c.7,0,1,.1,1,.9s-.1,3.1-.1,4.6.1.6-.2.8H45.1c-.5,0-.6.2-.6.7V43.2c0,.6.1.9.9.8,2.9-.2,5.9-.3,8.8-.6.6,0,.9.1.9.8S55,47.4,55,49s.1.5-.2.7l-9.8.7c-.4,0-.5.2-.5.5Z"/><path class="cls-1" d="M122.3,16.4a7.5,7.5,0,0,0-.2,2.1V60.4a10.9,10.9,0,0,0,.1,1.8c.5,2.3,1.9,3.4,4.3,3a3.7,3.7,0,0,0,1.8-.5c2.4-.6,3.8-2.5,3.9-5.5V42.9c0-.6-.2-.7-.7-.7l-3.7.4c-.6,0-.9-.1-.9-.9s0-2.4,0-3.7a3.2,3.2,0,0,1,1.7-.2l7.3-.6c.5,0,.8,0,.8.7,0,6.8,0,13.5-.1,20.2a12.5,12.5,0,0,1-3.8,9.5,16.9,16.9,0,0,1-7.2,2.6c-3.8.6-6.5-1.1-7.6-4.8a15.4,15.4,0,0,1-.5-4.3c0-13.9.1-27.7,0-41.6,0-3.4.5-6.7,2.8-9.4s7.6-2.7,11.7-1.2,4.1,3.8,4.5,6.9.1,5.6.2,8.4a.7.7,0,0,1-.5.7,8,8,0,0,0-3.1.1c-.7,0-.9-.1-.9-.9V17.9c-.1-3-1.4-4.7-4-5a7,7,0,0,0-2.5.1A3.7,3.7,0,0,0,122.3,16.4Z"/><path class="cls-1" d="M145.5,9.9c3.8-2.6,7.9-2.5,12-1s4.5,4.4,4.6,7.7c.1,6.7,0,13.4,0,20.1s-.1,10.7-.1,16a12,12,0,0,1-2.8,8.3,15.5,15.5,0,0,1-10.5,3.7,5.4,5.4,0,0,1-5.3-3.8,12,12,0,0,1-.7-4.6c0-12.4.1-24.8,0-37.3C142.7,15.7,143,12.5,145.5,9.9Zm2,6.1a4.1,4.1,0,0,0-.2,1.9c-.1,12.5-.1,25.1,0,37.6a6.6,6.6,0,0,0,.1,2,3,3,0,0,0,3.2,2.6,7.1,7.1,0,0,0,3.2-.7,4.1,4.1,0,0,0,3.1-2.6,7,7,0,0,0,.6-3.2V22.1c0-2,0-4-.1-6a3.5,3.5,0,0,0-3.1-3.5,7.5,7.5,0,0,0-4.2.2A3.5,3.5,0,0,0,147.5,16Z"/><path class="cls-1" d="M82.3,8.3c.1-.4.5-.3.8-.3h19.7c.6,0,.8.1.7.7v3.9c.1.7-.2.9-.8.8H96.5c-.6,0-.9.2-.8.8V75.1c0,.3.1.7-.2,1l-3.8.7c-.8.2-1.1.1-1.1-.9V14.7c0-.9-.2-1.1-1.1-1.1H83.2c-.6,0-.9-.2-.9-.9A22.6,22.6,0,0,0,82.3,8.3Z"/><path class="cls-2" d="M12.4,8.4a18.4,18.4,0,0,1,.5,4.1c.9,7.8,1.6,15.6,2.4,23.4L18,61.3c.6,5.3,1.1,10.7,1.6,16.1s1.1,9.4,1.5,14.1c.1.6.2.8.9.7a15.1,15.1,0,0,1,3.7-.7c-1.3,1.5-2.4,3.4-4.8,3.6l-1.9.4c-1.4.3-1.4.3-1.5-1.2-.5-4.3-.9-8.6-1.4-12.9s-.6-6.8-1-10.2-.9-8.1-1.3-12.1-.7-7-1-10.6-.8-6.8-1.1-10.2L10.8,30c-.3-3.5-.7-7-1.1-10.4s-.5-5-.8-7.6a.6.6,0,0,1,.1-.4A14.7,14.7,0,0,1,12.4,8.4Z"/><path class="cls-2" d="M39.5,8.1V87c0,1.2,0,1.2,1.2.9l13.4-2.8h1.1a29.4,29.4,0,0,1-3,3.1,1,1,0,0,1-.7.2L36.7,91.5c-.7.1-.8-.1-.8-.7V12.9a2.6,2.6,0,0,1,.9-2.2A33.1,33.1,0,0,1,39.5,8.1Z"/><path class="cls-1" d="M106.1,8.3c.1-.4.5-.3.7-.3h3.7c.6,0,.8.2.7.7V71.6c0,.5.2,1.1-.5,1.3a18.8,18.8,0,0,0-3.3.5c-1.2.3-1.2.3-1.2-1V9.6A5.7,5.7,0,0,0,106.1,8.3Z"/><path class="cls-2" d="M82.3,8.3a22.6,22.6,0,0,1,0,4.5c0,.7.3.9.9.9h6.3c.9,0,1.1.2,1.1,1.1V75.9c0,1,.3,1.1,1.1.9l3.8-.7a25,25,0,0,1-3.2,3.3c-.7.6-1.8.4-2.7.7l-1.5.2c-1,.4-1-.1-1-.9V18.3c0-1.3,0-1.3-1.3-1.3H80.3a15.4,15.4,0,0,0-1.7-5.1A25.1,25.1,0,0,1,82.3,8.3Z"/><path class="cls-2" d="M60.6,8.1c0,.7.1,1.3.1,1.9V82.5c0,1.3,0,1.3,1.2,1l3.5-.6a18,18,0,0,1-3.8,3.5c-.9.5-2.3.4-3.4.8s-1.1-.1-1.1-1V12.6a1.9,1.9,0,0,1,.7-1.7C58.8,10,59.6,8.9,60.6,8.1Z"/><path class="cls-2" d="M106.1,8.3a5.7,5.7,0,0,1,.1,1.3V72.4c0,1.3,0,1.3,1.2,1a18.8,18.8,0,0,1,3.3-.5c-1.5,1.5-2.7,3.4-5.2,3.7l-1.9.4c-.8.3-.9-.1-.9-.8V14.3a12.6,12.6,0,0,0-2,2,2,2,0,0,1-1.6.7H95.7V14.2c-.1-.6.2-.8.8-.8h6.2c.6.1.9-.1.8-.8V10.5c.8-.2,1.1-1,1.7-1.4S105.7,8.4,106.1,8.3Z"/><path class="cls-2" d="M120.3,10.1c-2.3,2.7-2.8,6-2.8,9.4.1,13.9,0,27.7,0,41.6a15.4,15.4,0,0,0,.5,4.3c1.1,3.7,3.8,5.4,7.6,4.8a16.9,16.9,0,0,0,7.2-2.6c0,.5-.4.7-.7,1a16.1,16.1,0,0,1-10.6,5.2c-4,.4-6.5-1.7-7.3-5.8-.1-1-.2-1.9-.2-2.8v-43a15.1,15.1,0,0,1,5.4-11.7C119.7,10.3,119.9,10,120.3,10.1Z"/><path class="cls-2" d="M145.5,9.9c-2.5,2.6-2.8,5.8-2.8,9.1.1,12.5,0,24.9,0,37.3a12,12,0,0,0,.7,4.6,5.4,5.4,0,0,0,5.3,3.8A15.5,15.5,0,0,0,159.2,61a8.1,8.1,0,0,1-2.4,2.8,16.9,16.9,0,0,1-11.5,4.4,5.5,5.5,0,0,1-5.6-4.3,13.9,13.9,0,0,1-.6-4V21.6a13.3,13.3,0,0,1,5.2-11.1A1.7,1.7,0,0,1,145.5,9.9Z"/><path class="cls-2" d="M29.9,8.1c-.7,6.7-1.3,13.3-2,19.9s-1.1,10.8-1.7,16.2L24.4,62.4c-.3,2.2-.5,4.4-.8,6.5-.4-3.4-.7-6.8-1-10.2L22,52.9a9.1,9.1,0,0,0,.5-3.3c.5-4.9,1-9.7,1.4-14.5l1.8-16,.6-6.8a1,1,0,0,1,.2-.7A28.1,28.1,0,0,1,29.9,8.1Z"/><path class="cls-2" d="M65.7,52.4c-.1-1-.1-2-.1-3s.2-.8.7-.8l3.7-.2c3.8-.3,4.9,1.9,5.3,4.4a15.1,15.1,0,0,1,.2,3V79.2c0,1.2,0,1.2,1.1,1l3.6-.6a10.4,10.4,0,0,1-3.3,3.3A14.3,14.3,0,0,1,72.6,84c-.3.1-.4-.2-.4-.4V58.1a9.7,9.7,0,0,0-.4-2.9c-.6-2.4-2.3-3.1-4.6-3Z"/><path class="cls-2" d="M126.9,38c0,1.3.1,2.5,0,3.7s.3.9.9.9l3.7-.4c.5,0,.7.1.7.7V59.2c-.1,3-1.5,4.9-3.9,5.5a17.5,17.5,0,0,0,.4-4V46.9c0-.9-.3-1.1-1.1-1l-3.5.2c-.5,0-.7-.1-.7-.7V41.7c0-.3,0-.6.2-.7S125.6,38.8,126.9,38Z"/><path class="cls-2" d="M122.3,16.4a3.7,3.7,0,0,1,3.4-3.4,7,7,0,0,1,2.5-.1c2.6.3,3.9,2,4,5v6.2c0,.8.2.9.9.9a8,8,0,0,1,3.1-.1,15.2,15.2,0,0,1-3,3.2c-.1.2-.4.2-.6.2l-2.9.2c-.8.1-1.1-.1-1-1V22.3a19.4,19.4,0,0,0-.2-2.4,4.1,4.1,0,0,0-4.2-3.5Z"/><path class="cls-2" d="M44.5,18V15c0-.5.1-.7.6-.7H55.2a32.6,32.6,0,0,1-3.1,3.3,1.6,1.6,0,0,1-1.3.3Z"/><path class="cls-2" d="M44.5,53.6V50.9c0-.3.1-.5.5-.5l9.8-.7a11.5,11.5,0,0,1-3.4,3.2c-.7.5-2,.3-3,.4Z"/><path class="cls-2" d="M71.6,41.8a13.2,13.2,0,0,0,.6-3.9v-14a9.8,9.8,0,0,0-.8-4.2,3.7,3.7,0,0,0-3.3-2.1,20.8,20.8,0,0,0-2.5,0V14.7c0-.5.1-.8.6-.8h5c2.5.2,3.9,1.9,4.1,4.7.1,1.3.1,2.6.1,3.9,0,4.3,0,8.7-.1,13a8.1,8.1,0,0,1-.6,3.1A4.9,4.9,0,0,1,71.6,41.8Z"/><path class="cls-2" d="M153.8,59.4c.3-6.4.1-12.8.1-19.2s0-12.9,0-19.4a6.1,6.1,0,0,0-.1-1.9A3.7,3.7,0,0,0,150,16h-2.5a3.5,3.5,0,0,1,2.6-3.2,7.5,7.5,0,0,1,4.2-.2,3.5,3.5,0,0,1,3.1,3.5c.1,2,.1,4,.1,6V53.6a7,7,0,0,1-.6,3.2A4.1,4.1,0,0,1,153.8,59.4Z"/></svg>