<svg height="100" viewBox="0 0 170 100" width="170" xmlns="http://www.w3.org/2000/svg"><g fill="#343434"><path d="m60.6 8.1c.2-.2.6-.1.8-.1h10a7.9 7.9 0 0 1 7.2 3.9 15.4 15.4 0 0 1 1.7 5.1c.3 5.5.1 11.1.1 16.7a16.1 16.1 0 0 1 -1.1 6.1 9.2 9.2 0 0 1 -3.7 4.6c4.4 1.6 4.8 5.3 4.9 9.1.1 8.4 0 16.8 0 25.2 0 .3.1.7-.3.9l-3.6.6c-1.1.2-1.1.2-1.1-1v-23.4a15.1 15.1 0 0 0 -.2-3c-.4-2.5-1.5-4.7-5.3-4.4l-3.7.2c-.5 0-.7.2-.7.8s0 2 .1 3-.1 2.5-.1 3.7v25.7c0 .4.2.8-.2 1.1l-3.5.6c-1.2.3-1.2.3-1.2-1v-72.5c0-.6-.1-1.2-.1-1.9zm11 33.7a4.9 4.9 0 0 0 3.1-3.2 8.1 8.1 0 0 0 .6-3.1c.1-4.3.1-8.7.1-13 0-1.3 0-2.6-.1-3.9-.2-2.8-1.6-4.5-4.1-4.7h-5c-.5 0-.6.3-.6.8v27.3c0 .3.1.4.4.4 1.9-.2 3.8 0 5.6-.6z"/><path d="m29.9 8.1a33.8 33.8 0 0 1 4.5-.1c.6 0 .4.4.3.6l-.9 9.1c-.7 7.1-1.5 14.3-2.3 21.5s-1.3 13-2 19.5-1.5 14.3-2.3 21.4c-.3 3.5-.7 7-1.1 10.5a.9.9 0 0 1 -.4.9 15.1 15.1 0 0 0 -3.7.7c-.7.1-.8-.1-.9-.7-.4-4.7-1-9.4-1.5-14.1s-1-10.8-1.6-16.1l-2.7-25.4c-.8-7.8-1.5-15.6-2.4-23.4a18.4 18.4 0 0 0 -.5-4.1c0-.5.3-.4.6-.4h3.9c.5 0 .7.1.7.6.6 5.4 1.1 10.8 1.6 16.2l2.1 21c.2 2.4.5 4.7.7 7.1l.6 5.8c.3 3.4.6 6.8 1 10.2.3-2.1.5-4.3.8-6.5l1.8-18.2c.6-5.4 1.1-10.8 1.7-16.2s1.3-13.2 2-19.9z"/><path d="m44.5 53.6v26.1c0 1.1.3 1.1 1.1.9l9-1.8c.8-.2 1 0 1 .8s0 3 0 4.5 0 .7-.4.9h-1.1l-13.4 2.9c-1.2.3-1.2.3-1.2-.9v-78.9c.2-.2.6-.1.8-.1h14.2c.7 0 1 .1 1 .9s-.1 3.1-.1 4.6.1.6-.2.8h-10.1c-.5 0-.6.2-.6.7v28.2c0 .6.1.9.9.8 2.9-.2 5.9-.3 8.8-.6.6 0 .9.1.9.8s-.1 3.2-.1 4.8.1.5-.2.7l-9.8.7c-.4 0-.5.2-.5.5z"/><path d="m122.3 16.4a7.5 7.5 0 0 0 -.2 2.1v41.9a10.9 10.9 0 0 0 .1 1.8c.5 2.3 1.9 3.4 4.3 3a3.7 3.7 0 0 0 1.8-.5c2.4-.6 3.8-2.5 3.9-5.5v-16.3c0-.6-.2-.7-.7-.7l-3.7.4c-.6 0-.9-.1-.9-.9s0-2.4 0-3.7a3.2 3.2 0 0 1 1.7-.2l7.3-.6c.5 0 .8 0 .8.7 0 6.8 0 13.5-.1 20.2a12.5 12.5 0 0 1 -3.8 9.5 16.9 16.9 0 0 1 -7.2 2.6c-3.8.6-6.5-1.1-7.6-4.8a15.4 15.4 0 0 1 -.5-4.3c0-13.9.1-27.7 0-41.6 0-3.4.5-6.7 2.8-9.4s7.6-2.7 11.7-1.2 4.1 3.8 4.5 6.9.1 5.6.2 8.4a.7.7 0 0 1 -.5.7 8 8 0 0 0 -3.1.1c-.7 0-.9-.1-.9-.9v-6.2c-.1-3-1.4-4.7-4-5a7 7 0 0 0 -2.5.1 3.7 3.7 0 0 0 -3.4 3.4z"/><path d="m145.5 9.9c3.8-2.6 7.9-2.5 12-1s4.5 4.4 4.6 7.7c.1 6.7 0 13.4 0 20.1s-.1 10.7-.1 16a12 12 0 0 1 -2.8 8.3 15.5 15.5 0 0 1 -10.5 3.7 5.4 5.4 0 0 1 -5.3-3.8 12 12 0 0 1 -.7-4.6c0-12.4.1-24.8 0-37.3 0-3.3.3-6.5 2.8-9.1zm2 6.1a4.1 4.1 0 0 0 -.2 1.9c-.1 12.5-.1 25.1 0 37.6a6.6 6.6 0 0 0 .1 2 3 3 0 0 0 3.2 2.6 7.1 7.1 0 0 0 3.2-.7 4.1 4.1 0 0 0 3.1-2.6 7 7 0 0 0 .6-3.2v-31.5c0-2 0-4-.1-6a3.5 3.5 0 0 0 -3.1-3.5 7.5 7.5 0 0 0 -4.2.2 3.5 3.5 0 0 0 -2.6 3.2z"/><path d="m82.3 8.3c.1-.4.5-.3.8-.3h19.7c.6 0 .8.1.7.7v3.9c.1.7-.2.9-.8.8h-6.2c-.6 0-.9.2-.8.8v60.9c0 .3.1.7-.2 1l-3.8.7c-.8.2-1.1.1-1.1-.9v-61.2c0-.9-.2-1.1-1.1-1.1h-6.3c-.6 0-.9-.2-.9-.9a22.6 22.6 0 0 0 0-4.4z"/></g><path d="m12.4 8.4a18.4 18.4 0 0 1 .5 4.1c.9 7.8 1.6 15.6 2.4 23.4l2.7 25.4c.6 5.3 1.1 10.7 1.6 16.1s1.1 9.4 1.5 14.1c.1.6.2.8.9.7a15.1 15.1 0 0 1 3.7-.7c-1.3 1.5-2.4 3.4-4.8 3.6l-1.9.4c-1.4.3-1.4.3-1.5-1.2-.5-4.3-.9-8.6-1.4-12.9s-.6-6.8-1-10.2-.9-8.1-1.3-12.1-.7-7-1-10.6-.8-6.8-1.1-10.2l-.9-8.3c-.3-3.5-.7-7-1.1-10.4s-.5-5-.8-7.6a.6.6 0 0 1 .1-.4 14.7 14.7 0 0 1 3.4-3.2z" fill="#b1b1b1"/><path d="m39.5 8.1v78.9c0 1.2 0 1.2 1.2.9l13.4-2.8h1.1a29.4 29.4 0 0 1 -3 3.1 1 1 0 0 1 -.7.2l-14.8 3.1c-.7.1-.8-.1-.8-.7v-77.9a2.6 2.6 0 0 1 .9-2.2 33.1 33.1 0 0 1 2.7-2.6z" fill="#b1b1b1"/><path d="m106.1 8.3c.1-.4.5-.3.7-.3h3.7c.6 0 .8.2.7.7v62.9c0 .5.2 1.1-.5 1.3a18.8 18.8 0 0 0 -3.3.5c-1.2.3-1.2.3-1.2-1v-62.8a5.7 5.7 0 0 0 -.1-1.3z" fill="#343434"/><g fill="#b1b1b1"><path d="m82.3 8.3a22.6 22.6 0 0 1 0 4.5c0 .7.3.9.9.9h6.3c.9 0 1.1.2 1.1 1.1v61.1c0 1 .3 1.1 1.1.9l3.8-.7a25 25 0 0 1 -3.2 3.3c-.7.6-1.8.4-2.7.7l-1.5.2c-1 .4-1-.1-1-.9v-61.1c0-1.3 0-1.3-1.3-1.3h-5.5a15.4 15.4 0 0 0 -1.7-5.1 25.1 25.1 0 0 1 3.7-3.6z"/><path d="m60.6 8.1c0 .7.1 1.3.1 1.9v72.5c0 1.3 0 1.3 1.2 1l3.5-.6a18 18 0 0 1 -3.8 3.5c-.9.5-2.3.4-3.4.8s-1.1-.1-1.1-1v-73.6a1.9 1.9 0 0 1 .7-1.7c1-.9 1.8-2 2.8-2.8z"/><path d="m106.1 8.3a5.7 5.7 0 0 1 .1 1.3v62.8c0 1.3 0 1.3 1.2 1a18.8 18.8 0 0 1 3.3-.5c-1.5 1.5-2.7 3.4-5.2 3.7l-1.9.4c-.8.3-.9-.1-.9-.8v-61.9a12.6 12.6 0 0 0 -2 2 2 2 0 0 1 -1.6.7h-3.4v-2.8c-.1-.6.2-.8.8-.8h6.2c.6.1.9-.1.8-.8v-2.1c.8-.2 1.1-1 1.7-1.4s.5-.7.9-.8z"/><path d="m120.3 10.1c-2.3 2.7-2.8 6-2.8 9.4.1 13.9 0 27.7 0 41.6a15.4 15.4 0 0 0 .5 4.3c1.1 3.7 3.8 5.4 7.6 4.8a16.9 16.9 0 0 0 7.2-2.6c0 .5-.4.7-.7 1a16.1 16.1 0 0 1 -10.6 5.2c-4 .4-6.5-1.7-7.3-5.8-.1-1-.2-1.9-.2-2.8v-43a15.1 15.1 0 0 1 5.4-11.7c.3-.2.5-.5.9-.4z"/><path d="m145.5 9.9c-2.5 2.6-2.8 5.8-2.8 9.1.1 12.5 0 24.9 0 37.3a12 12 0 0 0 .7 4.6 5.4 5.4 0 0 0 5.3 3.8 15.5 15.5 0 0 0 10.5-3.7 8.1 8.1 0 0 1 -2.4 2.8 16.9 16.9 0 0 1 -11.5 4.4 5.5 5.5 0 0 1 -5.6-4.3 13.9 13.9 0 0 1 -.6-4v-38.3a13.3 13.3 0 0 1 5.2-11.1 1.7 1.7 0 0 1 1.2-.6z"/><path d="m29.9 8.1c-.7 6.7-1.3 13.3-2 19.9s-1.1 10.8-1.7 16.2l-1.8 18.2c-.3 2.2-.5 4.4-.8 6.5-.4-3.4-.7-6.8-1-10.2l-.6-5.8a9.1 9.1 0 0 0 .5-3.3c.5-4.9 1-9.7 1.4-14.5l1.8-16 .6-6.8a1 1 0 0 1 .2-.7 28.1 28.1 0 0 1 3.4-3.5z"/><path d="m65.7 52.4c-.1-1-.1-2-.1-3s.2-.8.7-.8l3.7-.2c3.8-.3 4.9 1.9 5.3 4.4a15.1 15.1 0 0 1 .2 3v23.4c0 1.2 0 1.2 1.1 1l3.6-.6a10.4 10.4 0 0 1 -3.3 3.3 14.3 14.3 0 0 1 -4.3 1.1c-.3.1-.4-.2-.4-.4v-25.5a9.7 9.7 0 0 0 -.4-2.9c-.6-2.4-2.3-3.1-4.6-3z"/><path d="m126.9 38c0 1.3.1 2.5 0 3.7s.3.9.9.9l3.7-.4c.5 0 .7.1.7.7v16.3c-.1 3-1.5 4.9-3.9 5.5a17.5 17.5 0 0 0 .4-4v-13.8c0-.9-.3-1.1-1.1-1l-3.5.2c-.5 0-.7-.1-.7-.7v-3.7c0-.3 0-.6.2-.7s2-2.2 3.3-3z"/><path d="m122.3 16.4a3.7 3.7 0 0 1 3.4-3.4 7 7 0 0 1 2.5-.1c2.6.3 3.9 2 4 5v6.2c0 .8.2.9.9.9a8 8 0 0 1 3.1-.1 15.2 15.2 0 0 1 -3 3.2c-.1.2-.4.2-.6.2l-2.9.2c-.8.1-1.1-.1-1-1v-5.2a19.4 19.4 0 0 0 -.2-2.4 4.1 4.1 0 0 0 -4.2-3.5z"/><path d="m44.5 18v-3c0-.5.1-.7.6-.7h10.1a32.6 32.6 0 0 1 -3.1 3.3 1.6 1.6 0 0 1 -1.3.3z"/><path d="m44.5 53.6v-2.7c0-.3.1-.5.5-.5l9.8-.7a11.5 11.5 0 0 1 -3.4 3.2c-.7.5-2 .3-3 .4z"/><path d="m71.6 41.8a13.2 13.2 0 0 0 .6-3.9v-14a9.8 9.8 0 0 0 -.8-4.2 3.7 3.7 0 0 0 -3.3-2.1 20.8 20.8 0 0 0 -2.5 0v-2.9c0-.5.1-.8.6-.8h5c2.5.2 3.9 1.9 4.1 4.7.1 1.3.1 2.6.1 3.9 0 4.3 0 8.7-.1 13a8.1 8.1 0 0 1 -.6 3.1 4.9 4.9 0 0 1 -3.1 3.2z"/><path d="m153.8 59.4c.3-6.4.1-12.8.1-19.2s0-12.9 0-19.4a6.1 6.1 0 0 0 -.1-1.9 3.7 3.7 0 0 0 -3.8-2.9h-2.5a3.5 3.5 0 0 1 2.6-3.2 7.5 7.5 0 0 1 4.2-.2 3.5 3.5 0 0 1 3.1 3.5c.1 2 .1 4 .1 6v31.5a7 7 0 0 1 -.6 3.2 4.1 4.1 0 0 1 -3.1 2.6z"/></g></svg>