<?xml version="1.0" encoding="utf-8"?>
<!-- Generator: Adobe Illustrator 22.1.0, SVG Export Plug-In . SVG Version: 6.00 Build 0)  -->
<svg version="1.1" id="Layer_1" xmlns="http://www.w3.org/2000/svg" xmlns:xlink="http://www.w3.org/1999/xlink" x="0px" y="0px"
	 viewBox="0 0 21.9 34.7" style="enable-background:new 0 0 21.9 34.7;" xml:space="preserve">
<style type="text/css">
	.st0{fill:#584C8A;}
</style>
<title>Icons/Chevron right</title>
<desc>Created with Sketch.</desc>
<path class="st0" d="M3.5,33.8c-0.8,0-1.7-0.4-2.3-1c-1.1-1.3-0.9-3.1,0.3-4.2l12.7-10.9L1.6,6.1C0.3,5,0.2,3.1,1.3,1.9
	s3-1.3,4.2-0.2l14.4,13c0.8,0.7,1.3,1.8,1.3,2.8c0,1.1-0.4,2.1-1.2,2.9l0,0.2L5.5,33.1C4.9,33.6,4.2,33.8,3.5,33.8z M16,19.1
	L16,19.1L16,19.1z"/>
</svg>
