<svg enable-background="new 0 0 30 30" viewBox="0 0 30 30" xmlns="http://www.w3.org/2000/svg" xmlns:xlink="http://www.w3.org/1999/xlink"><filter id="a" filterUnits="userSpaceOnUse" height="22.1" width="22" x="0" y="0"><feColorMatrix values="1 0 0 0 0 0 1 0 0 0 0 0 1 0 0 0 0 0 1 0"/></filter><mask id="b" height="22.1" maskUnits="userSpaceOnUse" width="22" x="0" y="0"><path d="m22 22.2v-22.2h-22v22.1h22z" fill="#fff" filter="url(#a)"/></mask><g fill="#292c44"><path d="m11 0c-3 0-3.4 0-4.5.1-1.2.1-2 .2-2.7.5s-1.4.7-2 1.3-1 1.2-1.3 2c-.2.6-.4 1.4-.4 2.6s-.1 1.6-.1 4.6 0 3.4.1 4.6.2 2 .5 2.7.7 1.4 1.3 2 1.2 1 1.9 1.3 1.5.5 2.7.5c1.2.1 1.5.1 4.5.1s3.4 0 4.5-.1c1.2-.1 2-.2 2.7-.5s1.4-.7 1.9-1.3c.6-.6 1-1.2 1.3-2 .3-.7.5-1.5.5-2.7.1-1.2.1-1.6.1-4.6s0-3.4-.1-4.6-.2-2-.5-2.7-.7-1.4-1.3-2c-.5-.6-1.2-1-1.9-1.3s-1.5-.5-2.7-.5h-4.5m0 2c2.9 0 3.3 0 4.4.1 1.1 0 1.7.2 2 .4.5.2.9.5 1.3.8.4.4.6.8.8 1.3.1.4.3 1 .4 2.1s.1 1.4.1 4.4 0 3.3-.1 4.5c0 1.1-.2 1.7-.4 2.1-.2.5-.5.9-.8 1.3-.4.4-.8.7-1.3.8-.4.2-1 .3-2 .4-1.2.1-1.5.1-4.4.1s-3.3 0-4.4-.1c-1.1 0-1.7-.2-2-.4-.5-.2-.9-.5-1.3-.8-.4-.4-.6-.8-.8-1.3-.2-.4-.3-1-.4-2.1-.1-1.2-.1-1.6-.1-4.5v-4.5c0-1.1.2-1.7.4-2.1.2-.5.5-.8.8-1.2.4-.4.8-.7 1.3-.9.4-.2 1-.3 2-.4z" mask="url(#b)" transform="translate(4 4.014)"/><path d="m15 18.8c-2 0-3.7-1.7-3.7-3.7s1.6-3.7 3.7-3.7c2 0 3.7 1.7 3.7 3.7-.1 2.1-1.7 3.7-3.7 3.7m0-9.4c-3.1 0-5.6 2.5-5.6 5.7 0 3.1 2.5 5.7 5.6 5.7s5.6-2.5 5.6-5.7c0-3.1-2.5-5.7-5.6-5.7m7.2-.2c0 .7-.6 1.3-1.3 1.3s-1.3-.6-1.3-1.3.6-1.3 1.3-1.3 1.3.6 1.3 1.3"/></g></svg>