<svg xmlns="http://www.w3.org/2000/svg" enable-background="new 0 0 30 30" viewBox="0 0 30 30"><g transform="translate(4 4.014)"><defs><filter id="a" width="22" height="22.1" x="0" y="0" filterUnits="userSpaceOnUse"><feColorMatrix values="1 0 0 0 0 0 1 0 0 0 0 0 1 0 0 0 0 0 1 0"/></filter></defs><mask id="b" width="22" height="22.1" x="0" y="0" maskUnits="userSpaceOnUse"><path fill="#fff" d="M22 22.2V0H0v22.1h22z" filter="url(#a)"/></mask><path fill="#292c44" d="M11 0C8 0 7.6 0 6.5.1c-1.2.1-2 .2-2.7.5-.7.3-1.4.7-2 1.3-.6.6-1 1.2-1.3 2-.2.6-.4 1.4-.4 2.6S0 8.1 0 11.1s0 3.4.1 4.6c.1 1.2.2 2 .5 2.7.3.7.7 1.4 1.3 2 .6.6 1.2 1 1.9 1.3.7.3 1.5.5 2.7.5 1.2.1 1.5.1 4.5.1s3.4 0 4.5-.1c1.2-.1 2-.2 2.7-.5.7-.3 1.4-.7 1.9-1.3.6-.6 1-1.2 1.3-2 .3-.7.5-1.5.5-2.7.1-1.2.1-1.6.1-4.6s0-3.4-.1-4.6c-.1-1.2-.2-2-.5-2.7-.3-.7-.7-1.4-1.3-2-.5-.6-1.2-1-1.9-1.3-.7-.3-1.5-.5-2.7-.5H11m0 2c2.9 0 3.3 0 4.4.1 1.1 0 1.7.2 2 .4.5.2.9.5 1.3.8.4.4.6.8.8 1.3.1.4.3 1 .4 2.1.1 1.1.1 1.4.1 4.4s0 3.3-.1 4.5c0 1.1-.2 1.7-.4 2.1-.2.5-.5.9-.8 1.3-.4.4-.8.7-1.3.8-.4.2-1 .3-2 .4-1.2.1-1.5.1-4.4.1-2.9 0-3.3 0-4.4-.1-1.1 0-1.7-.2-2-.4-.5-.2-.9-.5-1.3-.8-.4-.4-.6-.8-.8-1.3-.2-.4-.3-1-.4-2.1C2 14.4 2 14 2 11.1V6.6c0-1.1.2-1.7.4-2.1.2-.5.5-.8.8-1.2.4-.4.8-.7 1.3-.9.4-.2 1-.3 2-.4H11" mask="url(#b)"/></g><path fill="#292c44" d="M15 18.8c-2 0-3.7-1.7-3.7-3.7s1.6-3.7 3.7-3.7c2 0 3.7 1.7 3.7 3.7-.1 2.1-1.7 3.7-3.7 3.7m0-9.4c-3.1 0-5.6 2.5-5.6 5.7 0 3.1 2.5 5.7 5.6 5.7 3.1 0 5.6-2.5 5.6-5.7 0-3.1-2.5-5.7-5.6-5.7m7.2-.2c0 .7-.6 1.3-1.3 1.3-.7 0-1.3-.6-1.3-1.3 0-.7.6-1.3 1.3-1.3s1.3.6 1.3 1.3"/></svg>