<svg xmlns="http://www.w3.org/2000/svg" enable-background="new 0 0 30 30" viewBox="0 0 30 30"><g transform="translate(3 5)"><defs><filter id="a" width="24" height="19.9" x="0" y="0" filterUnits="userSpaceOnUse"><feColorMatrix values="1 0 0 0 0 0 1 0 0 0 0 0 1 0 0 0 0 0 1 0"/></filter></defs><mask id="b" width="24" height="19.9" x="0" y="0" maskUnits="userSpaceOnUse"><path fill="#fff" d="M24 0H0v19.9h24V0z" filter="url(#a)"/></mask><path fill="#292c44" d="M21.6 5.6v-.7c1-.7 1.8-1.6 2.5-2.6-.9.4-1.9.7-2.8.8 1-.6 1.8-1.6 2.2-2.8-1 .6-2 1-3.1 1.2C19.3.6 18 0 16.6 0c-2.7 0-4.9 2.2-4.9 5 0 .4 0 .8.1 1.1C7.7 6 4.1 4 1.7.9c-.5.8-.7 1.7-.7 2.5 0 1.7.9 3.3 2.2 4.2-.8 0-1.6-.2-2.2-.6v.1c0 2.4 1.7 4.5 4 4.9-.7.2-1.5.2-2.2.1.6 2 2.4 3.4 4.6 3.5-2.2 1.6-4.8 2.4-7.4 2 2.2 1.5 4.9 2.3 7.5 2.3 9.1 0 14.1-7.7 14.1-14.3z" mask="url(#b)"/></g></svg>