<svg xmlns="http://www.w3.org/2000/svg" width="26" height="26" viewBox="0 0 26 26"><g fill="#303C42" fill-rule="evenodd"><path d="M24 19.5c0 2.481-2.019 4.5-4.5 4.5h-13A4.505 4.505 0 0 1 2 19.5v-13C2 4.019 4.019 2 6.5 2h13C21.981 2 24 4.019 24 6.5v13zM19.5 0h-13A6.508 6.508 0 0 0 0 6.5v13C0 23.084 2.916 26 6.5 26h13c3.584 0 6.5-2.916 6.5-6.5v-13C26 2.916 23.084 0 19.5 0z"/><path d="M12.978 18.022A5.027 5.027 0 0 1 7.957 13a5.027 5.027 0 0 1 5.021-5.022A5.028 5.028 0 0 1 18 13a5.028 5.028 0 0 1-5.022 5.022m0-12.044c-3.872 0-7.021 3.15-7.021 7.022 0 3.872 3.149 7.022 7.021 7.022A7.03 7.03 0 0 0 20 13a7.03 7.03 0 0 0-7.022-7.022M20 3c-.551 0-1 .449-1 1 0 .551.449 1 1 1 .551 0 1-.449 1-1 0-.551-.449-1-1-1"/></g></svg>